<svg width="31" height="33" viewBox="0 0 31 33" fill="none" xmlns="http://www.w3.org/2000/svg">
<path d="M30.5 16.5C30.5 25.0755 23.7694 32 15.5 32C7.23057 32 0.5 25.0755 0.5 16.5C0.5 7.9245 7.23057 1 15.5 1C23.7694 1 30.5 7.9245 30.5 16.5Z" stroke="#151515" stroke-opacity="0.16"/>
<path d="M13.805 25.8332V17.4842H10.9795V14.1665H13.805V11.5415C13.805 10.1561 14.1964 9.08057 14.9793 8.31494C15.7621 7.54932 16.8018 7.1665 18.0983 7.1665C19.1503 7.1665 20.0065 7.21511 20.667 7.31234V10.2655H18.9056C18.2451 10.2655 17.7925 10.4113 17.5479 10.703C17.3522 10.946 17.2543 11.3349 17.2543 11.8696V14.1665H20.3734L19.9331 17.4842H17.2543V25.8332H13.805Z" fill="#151515"/>
</svg>
