<svg width="31" height="33" viewBox="0 0 31 33" fill="none" xmlns="http://www.w3.org/2000/svg">
<path d="M30.5 16.5C30.5 25.0755 23.7694 32 15.5 32C7.23057 32 0.5 25.0755 0.5 16.5C0.5 7.9245 7.23057 1 15.5 1C23.7694 1 30.5 7.9245 30.5 16.5Z" stroke="#151515" stroke-opacity="0.16"/>
<path d="M7.38226 13.5929H10.8672V25.1656H7.38226V13.5929ZM9.12219 7.83301C10.234 7.83301 11.1377 8.76747 11.1377 9.91716C11.1377 11.0669 10.234 12.0036 9.12292 12.0036C8.58808 12.0024 8.07547 11.7822 7.69722 11.3912C7.31896 11.0002 7.10585 10.4702 7.10449 9.91716C7.10449 9.64328 7.1567 9.37208 7.25812 9.11907C7.35955 8.86606 7.50821 8.6362 7.69559 8.44264C7.88298 8.24908 8.10543 8.09561 8.35022 7.991C8.595 7.8864 8.85732 7.83271 9.12219 7.83301ZM13.0432 13.5929H16.3794V15.1745H16.4256C16.8903 14.2651 18.0248 13.3056 19.7237 13.3056C23.2461 13.3056 23.8962 15.7028 23.8962 18.8184V25.1663H20.42V19.5369C20.42 18.1954 20.3965 16.4675 18.6126 16.4675C16.8023 16.4675 16.5238 17.9302 16.5238 19.4383V25.1633H13.0484V13.5906L13.0432 13.5929Z" fill="#151515"/>
</svg>
